<?xml version="1.0" encoding="UTF-8" standalone="no"?>
<!DOCTYPE svg PUBLIC "-//W3C//DTD SVG 1.1//EN"
 "http://www.w3.org/Graphics/SVG/1.1/DTD/svg11.dtd">
<!-- Generated by graphviz version 13.1.2 (20250808.2320)
 -->
<!-- Title: classes_simple_model Pages: 1 -->
<svg width="636pt" height="391pt"
 viewBox="0.00 0.00 636.00 391.00" xmlns="http://www.w3.org/2000/svg" xmlns:xlink="http://www.w3.org/1999/xlink">
<g id="graph0" class="graph" transform="scale(1 1) rotate(0) translate(4 387)">
<title>classes_simple_model</title>
<polygon fill="white" stroke="none" points="-4,4 -4,-387 631.75,-387 631.75,4 -4,4"/>
<!-- simple_model.config.ExtraBaseModel -->
<g id="node1" class="node">
<title>simple_model.config.ExtraBaseModel</title>
<polygon fill="none" stroke="black" points="0,-234.75 0,-308.25 163.75,-308.25 163.75,-234.75 0,-234.75"/>
<text xml:space="preserve" text-anchor="start" x="36.12" y="-290.95" font-family="Times,serif" font-size="14.00">ExtraBaseModel</text>
<polyline fill="none" stroke="black" points="0,-283.75 163.75,-283.75"/>
<text xml:space="preserve" text-anchor="start" x="8" y="-266.45" font-family="Times,serif" font-size="14.00">model_config : ConfigDict</text>
<polyline fill="none" stroke="black" points="0,-259.25 163.75,-259.25"/>
<text xml:space="preserve" text-anchor="start" x="80" y="-241.95" font-family="Times,serif" font-size="14.00"> </text>
</g>
<!-- simple_model.config.ModelConfigPM -->
<g id="node2" class="node">
<title>simple_model.config.ModelConfigPM</title>
<polygon fill="none" stroke="black" points="163.62,-0.5 163.62,-107 322.12,-107 322.12,-0.5 163.62,-0.5"/>
<text xml:space="preserve" text-anchor="start" x="196" y="-89.7" font-family="Times,serif" font-size="14.00">ModelConfigPM</text>
<polyline fill="none" stroke="black" points="163.62,-82.5 322.12,-82.5"/>
<text xml:space="preserve" text-anchor="start" x="171.62" y="-65.2" font-family="Times,serif" font-size="14.00">modelName : Annotated</text>
<text xml:space="preserve" text-anchor="start" x="171.62" y="-48.7" font-family="Times,serif" font-size="14.00">models_dir : Annotated</text>
<text xml:space="preserve" text-anchor="start" x="171.62" y="-32.2" font-family="Times,serif" font-size="14.00">threshold : Optional[float]</text>
<polyline fill="none" stroke="black" points="163.62,-25 322.12,-25"/>
<text xml:space="preserve" text-anchor="start" x="241" y="-7.7" font-family="Times,serif" font-size="14.00"> </text>
</g>
<!-- simple_model.config.ModelConfigPM&#45;&gt;simple_model.config.ExtraBaseModel -->
<g id="edge1" class="edge">
<title>simple_model.config.ModelConfigPM&#45;&gt;simple_model.config.ExtraBaseModel</title>
<path fill="none" stroke="black" d="M203.7,-107.25C176.7,-143.43 141.19,-191.02 115.48,-225.47"/>
<polygon fill="none" stroke="black" points="112.91,-223.05 109.74,-233.16 118.52,-227.24 112.91,-223.05"/>
</g>
<!-- simple_model._base.SimpleModel -->
<g id="node3" class="node">
<title>simple_model._base.SimpleModel</title>
<polygon fill="none" stroke="black" points="182,-160.5 182,-382.5 627.75,-382.5 627.75,-160.5 182,-160.5"/>
<text xml:space="preserve" text-anchor="start" x="367.38" y="-365.2" font-family="Times,serif" font-size="14.00">SimpleModel</text>
<polyline fill="none" stroke="black" points="182,-358 627.75,-358"/>
<text xml:space="preserve" text-anchor="start" x="387.62" y="-340.7" font-family="Times,serif" font-size="14.00">config</text>
<text xml:space="preserve" text-anchor="start" x="387.62" y="-324.2" font-family="Times,serif" font-size="14.00">model</text>
<polyline fill="none" stroke="black" points="182,-317 627.75,-317"/>
<text xml:space="preserve" text-anchor="start" x="190" y="-299.7" font-family="Times,serif" font-size="14.00">is_model_files_exist(models_dir: str, model_name: str): bool</text>
<text xml:space="preserve" text-anchor="start" x="190" y="-283.2" font-family="Times,serif" font-size="14.00">is_similar(X: NDArray[Any], y: NDArray[Any], threshold: float | None): bool</text>
<text xml:space="preserve" text-anchor="start" x="190" y="-266.7" font-family="Times,serif" font-size="14.00">is_trained(): bool</text>
<text xml:space="preserve" text-anchor="start" x="190" y="-250.2" font-family="Times,serif" font-size="14.00">load(): None</text>
<text xml:space="preserve" text-anchor="start" x="190" y="-233.7" font-family="Times,serif" font-size="14.00">predict(X: NDArray[Any]): NDArray[Any]</text>
<text xml:space="preserve" text-anchor="start" x="190" y="-217.2" font-family="Times,serif" font-size="14.00">run(X: NDArray[Any], y: NDArray[Any] | None): NDArray[Any]</text>
<text xml:space="preserve" text-anchor="start" x="190" y="-200.7" font-family="Times,serif" font-size="14.00">save(): None</text>
<text xml:space="preserve" text-anchor="start" x="190" y="-184.2" font-family="Times,serif" font-size="14.00">score(y_true: NDArray[Any], y_pred: NDArray[Any]): float</text>
<text xml:space="preserve" text-anchor="start" x="190" y="-167.7" font-family="Times,serif" font-size="14.00">train(X: NDArray[Any], y: NDArray[Any]): None</text>
</g>
<!-- simple_model.config.ModelConfigPM&#45;&gt;simple_model._base.SimpleModel -->
<g id="edge2" class="edge">
<title>simple_model.config.ModelConfigPM&#45;&gt;simple_model._base.SimpleModel</title>
<path fill="none" stroke="black" d="M282.3,-107.25C292.11,-120.33 303.05,-134.89 314.23,-149.78"/>
<polygon fill="black" stroke="black" points="314.26,-149.81 321.06,-152.21 321.46,-159.41 314.66,-157.01 314.26,-149.81"/>
<text xml:space="preserve" text-anchor="middle" x="321.85" y="-128.7" font-family="Times,serif" font-size="14.00" fill="green">config</text>
</g>
<!-- simple_model._consts.WarnEnum -->
<g id="node4" class="node">
<title>simple_model._consts.WarnEnum</title>
<polygon fill="none" stroke="black" points="340.38,-17 340.38,-90.5 419.38,-90.5 419.38,-17 340.38,-17"/>
<text xml:space="preserve" text-anchor="start" x="348.38" y="-73.2" font-family="Times,serif" font-size="14.00">WarnEnum</text>
<polyline fill="none" stroke="black" points="340.38,-66 419.38,-66"/>
<text xml:space="preserve" text-anchor="start" x="364.88" y="-48.7" font-family="Times,serif" font-size="14.00">name</text>
<polyline fill="none" stroke="black" points="340.38,-41.5 419.38,-41.5"/>
<text xml:space="preserve" text-anchor="start" x="378" y="-24.2" font-family="Times,serif" font-size="14.00"> </text>
</g>
</g>
</svg>
